<svg width="202" height="202" viewBox="0 0 202 202" fill="none" xmlns="http://www.w3.org/2000/svg">
<circle opacity="0.202683" cx="101" cy="101" r="101" transform="matrix(-1 0 0 1 202 0)" fill="url(#paint0_linear_2004_1887)"/>
<path d="M163.347 100.866H177.883C177.883 100.866 187.421 120.536 189.299 128.964H163.347V100.866Z" fill="#E7816B"/>
<path fill-rule="evenodd" clip-rule="evenodd" d="M163.347 129.231H189.3C189.381 129.232 189.459 129.195 189.51 129.132C189.559 129.068 189.578 128.985 189.562 128.906C187.696 120.512 178.222 100.947 178.123 100.75C178.081 100.656 177.987 100.597 177.884 100.599H163.347C163.199 100.599 163.079 100.718 163.079 100.866V128.964C163.079 129.111 163.199 129.231 163.347 129.231ZM188.967 128.702H163.633L163.616 101.128H177.715C178.59 102.947 187.042 120.623 188.967 128.702Z" fill="#231F20"/>
<path d="M164.322 122.477L175.667 127.493C175.667 127.493 165.692 84.4806 146.209 65.0669C146.209 65.0669 139.402 70.2981 134.49 83.8703C133.242 87.3171 134.303 85.1491 134.222 85.7303L132.897 95.1059L164.322 122.477Z" fill="#E7816B"/>
<path fill-rule="evenodd" clip-rule="evenodd" d="M175.562 127.761C175.597 127.766 175.632 127.766 175.667 127.761C175.731 127.76 175.792 127.737 175.842 127.697C175.918 127.633 175.952 127.532 175.929 127.435C175.83 127.005 165.709 84.1495 146.395 64.8811C146.295 64.7923 146.145 64.7923 146.045 64.8811C145.975 64.9334 139.121 70.3157 134.238 83.8007C133.463 85.9501 133.533 85.992 133.754 86.1255L133.754 86.1257C133.797 86.1515 133.845 86.1674 133.894 86.1722L132.611 95.0596C132.598 95.1498 132.634 95.24 132.704 95.2979L164.128 122.698C164.146 122.717 164.168 122.731 164.193 122.739L175.562 127.761ZM175.299 127.034L164.467 122.25L133.177 94.9433L134.501 85.7421C134.545 85.5933 134.48 85.4338 134.343 85.3585H134.273C134.304 85.2719 134.343 85.1568 134.391 85.0135C134.478 84.7526 134.596 84.3982 134.758 83.9519C139.138 71.8154 145.1 66.3632 146.208 65.4216C164.152 83.5101 174.086 122.093 175.299 127.034Z" fill="#231F20"/>
<path d="M134.775 91.5665C134.775 91.5665 137.884 76.9073 146.343 68.7466C146.343 68.7466 159.374 79.7903 171.974 124.012L131.013 121.739C131.013 121.739 131.818 99.2622 134.775 91.5665Z" fill="#231F20"/>
<path fill-rule="evenodd" clip-rule="evenodd" d="M131.013 122.03L171.974 124.302C172.07 124.328 172.172 124.301 172.243 124.232C172.303 124.159 172.322 124.061 172.295 123.971C159.812 80.1447 146.704 68.6708 146.57 68.5604C146.46 68.4577 146.289 68.4577 146.179 68.5604C137.884 76.5409 134.659 90.8397 134.513 91.5023C131.598 99.1009 130.784 120.523 130.739 121.706L130.739 121.727C130.732 121.886 130.854 122.02 131.013 122.03ZM171.584 123.704L131.334 121.466C131.421 118.833 132.325 98.7679 135.061 91.6709V91.6244C135.09 91.479 138.182 77.1919 146.349 69.1474C147.119 69.8798 150.129 72.9488 154.212 79.9877C158.581 87.4859 165.126 101.145 171.584 123.704Z" fill="#231F20"/>
<path d="M120.991 104.214C120.991 104.214 127.851 89.9444 136.368 81.6616C136.368 81.6616 147.119 90.0665 154.119 99.0642C161.119 108.062 167.535 124.011 167.535 124.011H121.615L120.991 104.214Z" fill="white"/>
<path fill-rule="evenodd" clip-rule="evenodd" d="M121.616 124.302H167.542L167.512 124.279C167.609 124.28 167.7 124.233 167.754 124.154C167.809 124.075 167.821 123.974 167.787 123.884C167.74 123.744 161.265 107.795 154.323 98.8902C147.603 90.269 137.306 82.0783 136.562 81.4862C136.537 81.4667 136.523 81.4554 136.52 81.4527C136.41 81.3563 136.245 81.3563 136.135 81.4527C127.851 89.5297 121.019 103.437 120.71 104.065C120.705 104.077 120.701 104.084 120.7 104.087C120.691 104.131 120.691 104.176 120.7 104.22L121.324 124.023C121.33 124.179 121.459 124.303 121.616 124.302ZM167.11 123.721H121.896L121.289 104.278C121.299 104.259 121.311 104.234 121.326 104.205C122.061 102.736 128.536 89.7934 136.392 82.0455C137.897 83.2487 147.516 91.0491 153.892 99.2447C160.11 107.272 166.054 121.193 167.11 123.721Z" fill="#231F20"/>
<path d="M136.251 84.5039C136.251 84.5039 126.976 93.2227 123.575 105.15C123.575 105.15 163.364 119.152 163.009 118.803C162.653 118.455 157.099 105.894 150.759 98.5411C141.793 88.1309 136.251 84.5039 136.251 84.5039Z" fill="#231F20"/>
<path fill-rule="evenodd" clip-rule="evenodd" d="M143.152 112.323C159.66 118.083 162.495 119.053 163.079 119.053C163.201 119.053 163.23 119.013 163.254 118.96C163.33 118.852 163.317 118.706 163.224 118.612C163.149 118.513 162.816 117.844 162.431 117.066L162.413 117.029C160.49 113.167 156.028 104.207 150.992 98.3493C142.09 88.003 136.467 84.3005 136.409 84.2656C136.296 84.1903 136.146 84.2023 136.047 84.2946C135.954 84.3818 126.679 93.1994 123.295 105.069C123.249 105.216 123.329 105.373 123.476 105.423C123.476 105.423 133.305 108.882 143.152 112.323ZM162.431 118.356C158.389 117.083 136.181 109.306 123.931 104.987C127.075 94.2631 135.026 86.1198 136.292 84.8991C137.342 85.6315 142.639 89.5317 150.566 98.7445C155.558 104.542 159.998 113.472 161.908 117.314L161.924 117.345L162.431 118.356Z" fill="#231F20"/>
<path d="M126.743 92.002C126.743 92.002 145.491 94.8559 156.668 107.62C162.373 114.142 167.541 124.011 167.541 124.011H144.681L126.743 92.002Z" fill="#E7816B"/>
<path fill-rule="evenodd" clip-rule="evenodd" d="M144.681 124.279H167.542C167.638 124.279 167.726 124.225 167.769 124.14C167.816 124.059 167.816 123.959 167.769 123.878L167.766 123.872C167.607 123.571 162.459 113.835 156.855 107.435C145.748 94.7575 126.959 91.7408 126.773 91.7408C126.671 91.7272 126.571 91.7695 126.51 91.8512C126.46 91.9397 126.46 92.0476 126.51 92.136L144.448 124.145C144.496 124.229 144.585 124.28 144.681 124.279ZM167.098 123.75H144.838L127.251 92.3627C130.413 92.9556 146.548 96.4664 156.464 107.795C161.452 113.491 166.078 121.861 167.098 123.75Z" fill="#231F20"/>
<path d="M116.593 105.167C120.676 99.1571 123.009 95.35 126.743 92.002C133.713 96.1257 140.13 101.114 145.841 106.847C150.844 111.931 155.078 117.713 158.412 124.011H107.376C107.376 124.011 112.813 110.712 116.593 105.167Z" fill="white"/>
<path fill-rule="evenodd" clip-rule="evenodd" d="M107.377 124.302H158.412C158.51 124.302 158.601 124.252 158.652 124.169C158.698 124.079 158.698 123.973 158.652 123.884C155.293 117.562 151.04 111.754 146.022 106.638C140.288 100.893 133.85 95.8917 126.86 91.7524C126.754 91.6895 126.618 91.7037 126.527 91.7872C123.313 94.6412 121.126 97.8904 118.104 102.383C117.567 103.209 116.984 104.081 116.354 105.005C112.597 110.509 107.161 123.773 107.108 123.907C107.07 123.995 107.081 124.097 107.137 124.174C107.19 124.255 107.28 124.303 107.377 124.302ZM157.934 123.721H107.814C108.753 121.466 113.478 110.248 116.838 105.33L118.617 102.709C121.563 98.3205 123.71 95.1352 126.784 92.3627C133.652 96.4655 139.985 101.399 145.637 107.051C150.492 112.013 154.63 117.623 157.934 123.721Z" fill="#231F20"/>
<path d="M109.237 124.011C109.237 124.011 113.198 114.27 118.121 106.516C123.132 98.6283 127.006 94.856 127.006 94.856C127.006 94.856 132.88 97.6343 142.586 107.138C149.219 113.63 155.379 123.994 155.379 123.994L109.237 124.011Z" fill="#231F20"/>
<path fill-rule="evenodd" clip-rule="evenodd" d="M109.237 124.302H155.379C155.489 124.311 155.594 124.254 155.647 124.157C155.699 124.067 155.699 123.956 155.647 123.866C155.644 123.862 155.623 123.827 155.584 123.764C154.916 122.666 149.042 113.025 142.814 106.929C133.189 97.5009 127.215 94.5946 127.157 94.5946C127.046 94.5436 126.915 94.5642 126.825 94.6469C126.823 94.6486 126.815 94.6569 126.8 94.6718C126.462 95.0144 122.663 98.8607 117.9 106.359C113.017 114.026 109.027 123.808 108.992 123.907C108.945 123.99 108.945 124.091 108.992 124.174C109.048 124.255 109.139 124.302 109.237 124.302ZM154.86 123.721H109.675C110.474 121.844 114.073 113.433 118.366 106.673C122.759 99.7561 126.311 95.978 127.064 95.2107C128.131 95.7687 133.772 98.9133 142.382 107.347C148.14 112.98 153.611 121.681 154.86 123.721Z" fill="#231F20"/>
<path d="M127.834 127.493H68.2231C68.2231 127.493 65.3823 101.918 66.7881 85.0622C68.1939 68.206 76.9381 55.6626 76.9381 55.6626C76.9381 55.6626 99.0464 61.0798 112.341 82.3536C125.635 103.627 127.834 127.493 127.834 127.493Z" fill="white"/>
<path fill-rule="evenodd" clip-rule="evenodd" d="M68.2233 127.784H127.834C127.922 127.792 128.009 127.758 128.067 127.691C128.124 127.632 128.152 127.551 128.143 127.47L128.143 127.469C128.112 127.153 125.777 103.267 112.592 82.1733C99.385 61.0448 77.23 55.4067 77.0083 55.3544C76.8907 55.3199 76.7645 55.3674 76.6991 55.4706C76.6116 55.5811 67.885 68.3104 66.4966 85.0098C65.2246 100.311 67.4932 123.053 67.8821 126.952C67.9176 127.308 67.9375 127.507 67.9375 127.528C67.9525 127.674 68.0762 127.785 68.2233 127.784ZM127.531 127.203H68.4858C68.1941 124.471 65.7675 100.802 67.0916 85.033C68.3983 69.5194 76.0575 57.5166 77.0841 55.9705C79.2833 56.575 99.6825 62.6142 112.096 82.4813C124.387 102.145 127.204 124.296 127.531 127.203Z" fill="#231F20"/>
<path d="M127.833 127.493H109.75C109.75 127.493 107.545 104.412 98.6667 83.9344C89.7884 63.4569 76.9551 55.6333 76.9551 55.6333C76.9551 55.6333 99.0634 61.0506 112.358 82.3243C125.652 103.598 127.833 127.493 127.833 127.493Z" fill="#E7816B"/>
<path fill-rule="evenodd" clip-rule="evenodd" d="M109.75 127.761H127.833H127.921C127.996 127.761 128.068 127.73 128.119 127.675C128.17 127.619 128.196 127.545 128.189 127.47L128.189 127.468C128.155 127.119 125.825 103.258 112.638 82.1851C99.4192 61.0625 77.2759 55.4302 77.0542 55.3779C76.9262 55.3452 76.7937 55.4124 76.745 55.5348C76.6967 55.6543 76.7409 55.7912 76.85 55.8603C76.8524 55.862 76.861 55.8676 76.8757 55.8771C77.521 56.295 89.8786 64.2973 98.4334 84.0451C107.183 104.244 109.488 127.29 109.488 127.523C109.502 127.657 109.615 127.759 109.75 127.761ZM127.542 127.232H109.96C109.698 124.715 107.195 103 98.8767 83.8417C91.7659 67.4097 81.9659 59.0165 78.4134 56.366C83.675 58.0632 101.047 64.7941 112.095 82.4757C124.433 102.198 127.233 124.442 127.542 127.232Z" fill="#231F20"/>
<path d="M107.376 127.493C107.376 127.493 103.608 103.011 98.6672 89.8747C91.4106 70.6934 77.6672 59.6846 77.6672 59.6846C77.6672 59.6846 71.8339 70.6934 70.5214 79.7726C69.6697 85.7711 68.9697 115.583 70.5797 127.226L107.376 127.493Z" fill="#231F20"/>
<path fill-rule="evenodd" clip-rule="evenodd" d="M70.5797 127.516L107.376 127.784C107.463 127.787 107.547 127.751 107.604 127.685C107.662 127.62 107.687 127.533 107.674 127.447C107.672 127.435 107.661 127.366 107.641 127.245C107.257 124.86 103.597 102.154 98.9239 89.7875C91.7197 70.7399 77.9764 59.5857 77.8364 59.4753C77.7708 59.4185 77.6817 59.3968 77.5972 59.4172C77.5125 59.4333 77.4396 59.4867 77.3989 59.5625C77.3405 59.6497 71.5189 70.6934 70.2297 79.7319C69.4072 85.5502 68.678 115.607 70.2939 127.266C70.314 127.409 70.4355 127.515 70.5797 127.516ZM107.038 127.203L70.8364 126.935C69.273 115.147 69.9905 85.5734 70.813 79.8249C71.9564 71.7397 76.7864 62.0328 77.7489 60.167C86.8948 68.3476 93.9637 78.5724 98.3755 90.0025C102.955 102.098 106.56 124.203 107.038 127.203Z" fill="#231F20"/>
<path d="M62.5003 75.7041C62.5003 75.7041 74.7095 77.814 88.6278 87.4919C112.282 103.941 120.501 127.493 120.501 127.493H58.627C58.627 127.493 60.7503 82.528 62.5003 75.7041Z" fill="#E7816B"/>
<path fill-rule="evenodd" clip-rule="evenodd" d="M58.6267 127.761H120.518V127.714C120.605 127.713 120.685 127.671 120.736 127.601C120.786 127.531 120.801 127.442 120.775 127.36C120.773 127.355 120.768 127.342 120.759 127.318C120.341 126.196 111.785 103.234 88.8025 87.2535C74.9775 77.6454 62.675 75.4192 62.5525 75.4192C62.4138 75.3964 62.2803 75.4817 62.2433 75.6168C60.5108 82.3884 58.4283 125.622 58.3408 127.459C58.3403 127.532 58.3674 127.602 58.4167 127.656C58.4674 127.721 58.5445 127.759 58.6267 127.761ZM120.157 127.226H58.9067C59.0875 123.465 61.0825 83.1847 62.7392 76.0063C64.53 76.3666 75.8758 78.9125 88.5167 87.701C110.24 102.814 118.99 124.227 120.157 127.226Z" fill="#231F20"/>
<path d="M101.065 127.493C101.065 127.493 99.4545 114.648 88.5753 100.326C77.6962 86.0039 62.5003 75.7041 62.5003 75.7041C62.5003 75.7041 55.9845 84.8065 53.5637 95.6468C51.1428 106.487 52.9803 127.493 52.9803 127.493H101.065Z" fill="white"/>
<path fill-rule="evenodd" clip-rule="evenodd" d="M52.9862 127.784H101.065C101.137 127.78 101.206 127.749 101.257 127.697C101.311 127.634 101.336 127.552 101.327 127.47C101.31 127.33 99.5595 114.339 88.7795 100.151C78.0778 86.0658 63.0298 75.7212 62.6635 75.4694C62.6609 75.4675 62.659 75.4662 62.6579 75.4655C62.527 75.3756 62.348 75.4066 62.2554 75.5352C62.2544 75.5366 62.252 75.54 62.2483 75.5453C61.9979 75.9016 55.6168 84.9833 53.2779 95.5825C51.0593 105.636 52.4776 124.602 52.6731 127.216C52.6868 127.4 52.6945 127.503 52.6945 127.516C52.7093 127.666 52.8349 127.782 52.9862 127.784ZM100.703 127.203H53.2545C53.0562 124.75 51.6387 105.725 53.8204 95.693C56.0137 85.9745 61.5495 77.5928 62.5704 76.0932C64.5479 77.4882 78.3379 87.3578 88.3187 100.506C98.072 113.334 100.359 125.116 100.703 127.203Z" fill="#231F20"/>
<path d="M98.2649 125.755C98.2649 125.755 95.0508 112.596 82.0599 97.0995C76.5487 90.5533 70.2253 84.731 63.2416 79.7725C63.2416 79.7725 57.2158 87.6833 55.7049 97.7215C54.4683 105.958 54.1999 120.722 54.1416 125.755H98.2649Z" fill="#231F20"/>
<path fill-rule="evenodd" clip-rule="evenodd" d="M54.1413 126.046H98.2646C98.3495 126.043 98.4286 126.003 98.4805 125.936C98.5375 125.866 98.557 125.773 98.533 125.686C98.5038 125.552 95.1555 112.282 82.2696 96.9139C76.7332 90.3537 70.3913 84.5129 63.393 79.5287C63.2666 79.4421 63.0941 79.4703 63.0021 79.5926C62.9496 79.6566 56.9238 87.6836 55.4188 97.6753C54.1996 105.79 53.9138 120.013 53.8496 125.75C53.8485 125.829 53.8802 125.904 53.9371 125.959C53.9913 126.013 54.0645 126.044 54.1413 126.046ZM97.8796 125.465H54.4388C54.5088 119.559 54.8005 105.702 55.9963 97.7625C57.338 88.8461 62.3371 81.5282 63.3113 80.1681C70.1673 85.0962 76.3895 90.8452 81.838 97.2859C93.4463 111.137 97.2555 123.25 97.8796 125.465Z" fill="#231F20"/>
<path d="M94.7532 127.493C94.1699 125.209 91.7374 117.345 84.2532 106.016C75.2874 92.4671 62.9965 88.4507 62.9965 88.4507H38.8174V89.3574L55.3374 127.493H94.7532Z" fill="#E7816B"/>
<path fill-rule="evenodd" clip-rule="evenodd" d="M55.3366 127.761H94.7524C94.8481 127.764 94.9387 127.718 94.9916 127.639C95.0434 127.575 95.0609 127.491 95.0383 127.412C94.4724 125.232 92.0399 117.257 84.4974 105.853C75.5841 92.3799 63.2291 88.224 63.1066 88.1833C63.0777 88.1778 63.048 88.1778 63.0191 88.1833H38.8458C38.6999 88.1865 38.5832 88.3053 38.5833 88.4507V89.3574C38.5777 89.3921 38.5777 89.4274 38.5833 89.4621L55.0916 127.598C55.1322 127.697 55.2292 127.761 55.3366 127.761ZM94.3908 127.226H55.4999L39.0849 89.3051V88.7239H62.9374C63.7074 88.9854 75.4558 93.2286 84.0074 106.161C91.1649 116.978 93.6908 124.674 94.3908 127.226Z" fill="#231F20"/>
<path d="M82.0599 127.493C78.7932 121.843 63.6674 97.6402 38.8174 88.4507C38.8174 88.4507 31.0474 105.022 33.2582 127.493H82.0599Z" fill="white"/>
<path fill-rule="evenodd" clip-rule="evenodd" d="M33.2576 127.784H82.0593C82.1629 127.783 82.2583 127.728 82.3101 127.639C82.3622 127.549 82.3622 127.438 82.3101 127.348C79.4751 122.471 64.0576 97.4777 38.9218 88.1777C38.7785 88.1242 38.618 88.1902 38.5543 88.3288C38.5537 88.3302 38.5526 88.3326 38.551 88.336C38.3565 88.7639 30.7901 105.409 32.966 127.523C32.9835 127.67 33.1083 127.782 33.2576 127.784ZM81.5518 127.203H33.526C31.5835 106.667 38.041 90.9503 38.9685 88.8403C63.1068 97.8788 78.1685 121.46 81.5518 127.203Z" fill="#231F20"/>
<path d="M79.0849 127.493C77.5857 124.692 72.0849 116.781 65.5924 109.573C53.3949 96.0766 39.8149 91.6533 39.8149 91.6533C33.509 108.986 35.7782 122.181 35.9007 127.493H79.0849Z" fill="#231F20"/>
<path fill-rule="evenodd" clip-rule="evenodd" d="M35.918 127.784H79.0846V127.795C79.1878 127.796 79.2834 127.742 79.3361 127.653C79.3889 127.565 79.3908 127.455 79.3413 127.365C77.9646 124.796 72.5746 116.879 65.808 109.393C53.698 95.9777 40.0421 91.4207 39.9021 91.3742C39.7529 91.3309 39.5952 91.4094 39.5405 91.5544C34.1971 106.283 35.0138 118.123 35.4571 124.517C35.4725 124.736 35.4881 124.95 35.5033 125.158C35.5687 126.053 35.6263 126.843 35.6263 127.499C35.6263 127.575 35.6572 127.649 35.7121 127.702C35.7669 127.756 35.8412 127.785 35.918 127.784ZM78.5888 127.202H36.1805C36.1588 126.491 36.1021 125.649 36.0381 124.701C36.0331 124.627 36.0281 124.552 36.023 124.476C35.5855 118.181 34.7805 106.51 39.9896 92.0252C41.9496 92.7285 54.293 97.518 65.3763 109.765C71.7696 116.845 76.9146 124.296 78.5888 127.202Z" fill="#231F20"/>
<path d="M181.657 127.493L178.863 121.867H88.3766L85.5999 127.493H28.5791V147.366H191.177V127.493H181.657V127.493Z" fill="white"/>
<path fill-rule="evenodd" clip-rule="evenodd" d="M28.5798 147.657H191.178C191.337 147.654 191.464 147.525 191.464 147.366V127.493C191.464 127.333 191.333 127.203 191.172 127.203H181.839L179.126 121.739C179.076 121.64 178.975 121.577 178.864 121.576H88.3773C88.2657 121.576 88.1638 121.639 88.1148 121.739L85.4198 127.203H28.5798C28.4187 127.203 28.2881 127.333 28.2881 127.493V147.366C28.2881 147.527 28.4187 147.657 28.5798 147.657ZM190.886 147.076H28.8714V127.784H85.6006C85.7117 127.783 85.813 127.72 85.8631 127.621L88.5581 122.157H178.683L181.396 127.621C181.446 127.72 181.547 127.783 181.658 127.784H190.886V147.076Z" fill="#231F20"/>
<rect x="68.2227" y="127.493" width="32.8417" height="19.8671" fill="#D1D3D4"/>
<path fill-rule="evenodd" clip-rule="evenodd" d="M68.2233 147.657H101.065C101.226 147.657 101.357 147.527 101.357 147.366V127.493C101.357 127.333 101.226 127.203 101.065 127.203H68.2233C68.0635 127.206 67.9347 127.334 67.9316 127.493V147.366C67.9316 147.527 68.0622 147.657 68.2233 147.657ZM100.773 147.076H68.515V127.784H100.773V147.076Z" fill="#231F20"/>
<path d="M152.503 128.964L174.191 147.366H152.503V128.964V128.964Z" fill="#D1D3D4"/>
<path fill-rule="evenodd" clip-rule="evenodd" d="M152.503 147.657H174.191C174.313 147.655 174.421 147.579 174.462 147.465C174.504 147.351 174.47 147.224 174.378 147.145L152.689 128.743C152.602 128.672 152.483 128.656 152.38 128.702C152.277 128.748 152.21 128.851 152.211 128.964V147.366C152.211 147.527 152.342 147.657 152.503 147.657ZM173.398 147.075H152.794V129.597L173.398 147.075Z" fill="#231F20"/>
<rect x="23.8838" y="131.103" width="44.3392" height="1.9995" fill="white"/>
<path fill-rule="evenodd" clip-rule="evenodd" d="M23.8893 133.393H68.2227C68.3 133.393 68.3742 133.363 68.4289 133.308C68.4836 133.254 68.5143 133.18 68.5143 133.103V131.103C68.5143 130.943 68.3837 130.812 68.2227 130.812H23.8893C23.7282 130.812 23.5977 130.943 23.5977 131.103V133.103C23.6008 133.262 23.7295 133.39 23.8893 133.393ZM67.9252 132.812H24.1752V131.394H67.9252V132.812Z" fill="#231F20"/>
<rect x="19.6025" y="136.177" width="48.6267" height="3.52238" fill="white"/>
<path fill-rule="evenodd" clip-rule="evenodd" d="M19.6022 139.985H68.223C68.3841 139.985 68.5147 139.854 68.5147 139.694V136.177C68.5147 136.017 68.3841 135.887 68.223 135.887H19.6022C19.4411 135.887 19.3105 136.017 19.3105 136.177V139.694C19.3105 139.854 19.4411 139.985 19.6022 139.985ZM67.9314 139.403H19.8939L19.9172 136.468H67.9314V139.403Z" fill="#231F20"/>
<rect x="19.6025" y="138.275" width="48.6267" height="4.38844" fill="#E7816B"/>
<path fill-rule="evenodd" clip-rule="evenodd" d="M19.6023 142.926H68.2232C68.2938 142.927 68.362 142.9 68.4125 142.851C68.463 142.802 68.4915 142.735 68.4915 142.664V138.276C68.4915 138.128 68.3713 138.008 68.2232 138.008H19.6023C19.4541 138.008 19.334 138.128 19.334 138.276V142.664C19.334 142.735 19.3624 142.802 19.4129 142.851C19.4634 142.9 19.5317 142.927 19.6023 142.926ZM67.9607 142.397H19.8648V138.543H67.9607V142.397Z" fill="#231F20"/>
<rect x="23.8838" y="133.103" width="44.3392" height="3.07481" fill="#E7816B"/>
<path fill-rule="evenodd" clip-rule="evenodd" d="M23.8895 136.439H68.2229C68.2935 136.44 68.3618 136.413 68.4123 136.364C68.4627 136.315 68.4912 136.248 68.4912 136.177V133.102C68.4928 133.031 68.465 132.962 68.4144 132.912C68.3637 132.861 68.2945 132.833 68.2229 132.835H23.8895C23.8189 132.835 23.7512 132.863 23.7018 132.914C23.6524 132.964 23.6254 133.032 23.627 133.102V136.177C23.627 136.322 23.7445 136.439 23.8895 136.439ZM67.9604 135.91H24.152V133.364H67.9604V135.91Z" fill="#231F20"/>
<rect x="28.5791" y="129.307" width="39.6492" height="1.79606" fill="#E7816B"/>
<path fill-rule="evenodd" clip-rule="evenodd" d="M28.5564 131.37H68.2231C68.3713 131.37 68.4914 131.251 68.4914 131.103V129.307C68.4914 129.236 68.4632 129.168 68.4128 129.118C68.3625 129.068 68.2943 129.04 68.2231 129.04H28.5564C28.4853 129.04 28.417 129.068 28.3667 129.118C28.3164 129.168 28.2881 129.236 28.2881 129.307V131.103C28.2881 131.251 28.4082 131.37 28.5564 131.37ZM67.9606 130.836H28.8423V129.574H67.9606V130.836Z" fill="#231F20"/>
<path d="M85.6006 127.493H111.361L113.741 121.867H88.3773L85.6006 127.493V127.493Z" fill="#D1D3D4"/>
<path fill-rule="evenodd" clip-rule="evenodd" d="M85.6008 127.784H111.361C111.474 127.779 111.574 127.708 111.618 127.604L113.998 121.983C114.044 121.898 114.044 121.795 113.998 121.71C113.944 121.627 113.852 121.576 113.753 121.576H88.3892C88.2776 121.576 88.1758 121.639 88.1267 121.739L85.35 127.365C85.3 127.452 85.3 127.558 85.35 127.644C85.4048 127.73 85.499 127.782 85.6008 127.784ZM111.151 127.203H86.0675L88.5583 122.157H113.286L111.151 127.203Z" fill="#231F20"/>
<rect x="119.306" y="124.883" width="38.4825" height="1.73794" fill="#E7816B"/>
<rect x="169.997" y="133.585" width="16.1875" height="1.27294" fill="#E7816B"/>
<rect x="10.8232" y="141.06" width="57.4058" height="6.30656" fill="white"/>
<path fill-rule="evenodd" clip-rule="evenodd" d="M10.8229 147.657H68.2229C68.384 147.657 68.5146 147.527 68.5146 147.366V141.06C68.5146 140.899 68.384 140.769 68.2229 140.769H10.8229C10.6618 140.769 10.5312 140.899 10.5312 141.06V147.366C10.5312 147.527 10.6618 147.657 10.8229 147.657ZM67.9312 147.076H11.1146V141.35H67.9312V147.076Z" fill="#231F20"/>
<path d="M181.658 129.231H152.491C152.387 129.247 152.284 129.2 152.226 129.112C152.169 129.024 152.169 128.91 152.226 128.822C152.284 128.734 152.387 128.687 152.491 128.702H181.658C181.762 128.687 181.866 128.734 181.923 128.822C181.98 128.91 181.98 129.024 181.923 129.112C181.866 129.2 181.762 129.247 181.658 129.231V129.231Z" fill="#231F20"/>
<defs>
<linearGradient id="paint0_linear_2004_1887" x1="0" y1="202" x2="202" y2="202" gradientUnits="userSpaceOnUse">
<stop stop-color="#5D0202" stop-opacity="0.01"/>
<stop offset="1" stop-color="#5D0202" stop-opacity="0.497569"/>
</linearGradient>
</defs>
</svg>
